<svg width="794" height="611" viewBox="0 0 794 611" fill="none" xmlns="http://www.w3.org/2000/svg">
<path fill-rule="evenodd" clip-rule="evenodd" d="M323.585 260C330.488 259.953 336.046 254.319 336 247.415C335.953 240.512 330.319 234.954 323.415 235C316.512 235.047 310.954 240.681 311 247.585C311.047 254.488 316.681 260.046 323.585 260ZM323.367 257.951C328.674 257.915 332.948 253.583 332.912 248.276C332.876 242.969 328.544 238.696 323.237 238.732C317.93 238.768 313.657 243.099 313.692 248.406C313.728 253.714 318.06 257.987 323.367 257.951Z" fill="#8E19F5"/>
<path fill-rule="evenodd" clip-rule="evenodd" d="M472.585 265C479.488 264.953 485.046 259.319 485 252.415C484.953 245.512 479.319 239.954 472.415 240C465.512 240.047 459.954 245.681 460 252.585C460.047 259.488 465.681 265.046 472.585 265ZM472.367 262.951C477.674 262.915 481.948 258.583 481.912 253.276C481.876 247.969 477.544 243.696 472.237 243.732C466.93 243.768 462.657 248.099 462.692 253.406C462.728 258.714 467.06 262.987 472.367 262.951Z" fill="#8E19F5"/>
<path d="M500 385C500 420.898 453.885 454.5 397 454.5C340.115 454.5 294 420.898 294 385C294 385 340.115 432 397 432C453.885 432 500 385 500 385Z" fill="#D7F1FD"/>
<path d="M375 220.916C383.5 186 355.748 191.916 332 191.916C308.252 191.916 289 205.937 289 220.916C289 220.916 308.252 229.416 332 229.416C355.748 229.416 375 220.916 375 220.916Z" fill="#D7F1FD"/>
<path d="M417.567 221.379C409.067 186.463 436.819 192.379 460.567 192.379C484.315 192.379 503.567 206.4 503.567 221.379C503.567 221.379 484.315 229.879 460.567 229.879C436.819 229.879 417.567 221.379 417.567 221.379Z" fill="#D7F1FD"/>
<path d="M445 445C445 463.078 419.704 480 388.5 480C357.296 480 332 463.078 332 445C332 445 357.296 468.669 388.5 468.669C419.704 468.669 445 445 445 445Z" fill="#D7F1FD"/>
<path d="M397 236H405C421.569 236 435 249.431 435 266V326C435 342.569 421.569 356 405 356H397V236Z" fill="#D7F1FD"/>
<path d="M538.257 277L543.49 279.758C548.865 282.59 550.925 289.243 548.093 294.618C545.26 299.992 538.607 302.053 533.233 299.22L528 296.463L538.257 277Z" fill="#D7F1FD"/>
<path d="M254.964 264L249.731 266.758C244.357 269.59 242.296 276.243 245.129 281.618C247.961 286.992 254.614 289.053 259.989 286.22L265.221 283.463L254.964 264Z" fill="#D7F1FD"/>
<path d="M292.213 92.7601C294.042 83.7302 298.1 75.3011 304.018 68.2398L337.191 28.658C338.383 27.2358 339.866 26.0848 341.539 25.2822L384.216 4.81082C387.763 3.10955 391.074 7.52182 388.449 10.4517C385.961 13.2292 388.825 17.491 392.337 16.2369L419.635 6.48765C420.538 6.16495 421.49 6 422.45 6H441.106C443.891 6 444.972 9.62193 442.642 11.1484C440.43 12.5975 441.27 16.0223 443.902 16.2831L485.711 20.4263C489.471 20.7989 493.011 22.3692 495.812 24.9059L518.295 45.2733C523.836 50.2922 520.285 59.5 512.809 59.5C505.741 59.5 502.007 67.8669 506.728 73.1279L543.336 113.928C546.283 117.212 542.304 122.072 538.503 119.832C535.79 118.233 532.407 120.38 532.699 123.516L532.964 126.359C533.379 130.822 528.428 133.767 524.704 131.273L487.708 106.489C484.297 104.204 480.342 102.862 476.245 102.599L454.17 101.184C448.956 100.85 444.974 105.765 446.383 110.796C448.073 116.831 442.127 122.195 436.297 119.893L401.983 106.348C396.493 104.181 390.427 103.954 384.791 105.704L308.638 129.352C302.508 131.255 295.836 129.257 291.762 124.297C288.749 120.629 287.547 115.799 288.489 111.147L292.213 92.7601Z" fill="#D7F1FD"/>
<path fill-rule="evenodd" clip-rule="evenodd" d="M283.64 231.14L367.05 235.46L365.89 268.39C362.39 297.33 320.6 297.97 299.74 289.76C278.581 281.433 279.943 264.35 281.39 246.204C281.749 241.709 282.112 237.149 282.14 232.64L283.64 231.14ZM300.067 234.792L289.51 233.93L284.43 234.93C284.659 239.426 284.244 244.1 283.828 248.783C282.882 259.443 281.932 270.152 288.56 278.92C298.96 292.67 328.09 294.13 343.39 289.89C363.5 284.31 364.4 267.53 365.04 249.53C365.12 247.28 365.42 239.16 364.56 237.93L338.503 236.776C338.381 236.382 338.021 236.09 337.587 236.073L300.661 234.625C300.442 234.616 300.237 234.679 300.067 234.792Z" fill="#8E19F5"/>
<path fill-rule="evenodd" clip-rule="evenodd" d="M513.871 259.203C513.974 253.54 514.081 247.715 515.01 242V241.99L429.94 238.43C429.2 238.95 428.07 253.74 427.96 256.45C427.22 274.51 427.17 287.93 445.74 295.76C460.72 302.08 479.5 303.15 494.68 297.18C513.312 289.857 513.58 275.172 513.871 259.203ZM450.756 241.122L432.02 240.03L429.97 269.45C430.86 298.95 471.62 303.35 493.23 295.73C511.401 289.327 511.562 271.428 511.712 254.792C511.746 251.085 511.779 247.44 512.01 244L489.523 242.853C489.427 242.421 489.05 242.091 488.587 242.073L451.661 240.625C451.278 240.61 450.937 240.812 450.756 241.122Z" fill="#8E19F5"/>
<path d="M441.002 380.023L441 380.01L441.02 380.02L441.002 380.023Z" fill="#8E19F5"/>
<path d="M434.369 382.875C436.435 381.658 438.405 380.498 441.002 380.023C441.292 381.914 439.656 382.83 438.227 383.63L438.218 383.635L438.184 383.654L438.125 383.687L438.052 383.728L437.866 383.833C437.781 383.882 437.697 383.931 437.614 383.979L437.53 384.03C419.84 394.68 381.64 392.65 361.78 388.74C354.76 387.36 347.01 385.46 341.02 381.5C341.592 380.411 343.637 381.059 344.767 381.417L344.773 381.419L345.03 381.5C370.79 389.25 402.86 394.61 429.03 385.52C431.094 384.803 432.76 383.822 434.369 382.875Z" fill="#8E19F5"/>
<path d="M254.45 268.56C251.76 265.942 249.324 264.721 246.513 263.312C245.415 262.761 244.26 262.182 243.01 261.48C242.323 258.845 246.88 260.727 248.043 261.208L248.22 261.28C257.49 265.02 269.04 280.16 263.79 290.29C257.72 302.02 238.31 289.58 248.5 279.02C249.896 280.352 249.394 281.458 248.785 282.8C248.242 283.996 247.614 285.38 248.17 287.28C249.78 292.77 258.41 295 261.77 288.26C264.93 281.93 258.95 272.94 254.45 268.56Z" fill="#8E19F5"/>
<path d="M538.52 283.01L553 274.01L553.01 274C540.38 272.36 520.49 296.4 532.65 305.86C541.53 312.77 552.46 302.28 546.5 293.01L544.9 301.38C542.14 305.31 537.06 306.66 533.46 303.05C527.43 297.02 534.31 288.16 538.52 283.01Z" fill="#8E19F5"/>
<path fill-rule="evenodd" clip-rule="evenodd" d="M457.5 13C461.08 13.38 469 15.6 472.76 16.74C498.9 24.6801 517.87 43.51 529.98 67.51C528.87 68.98 528.51 69.08 526.72 68.8101C524.856 68.528 522.104 67.4999 519.193 66.4121C516.324 65.3405 513.302 64.2111 510.82 63.6801C510.554 63.6234 510.289 63.5653 510.023 63.5065C509.635 63.4205 509.248 63.3329 508.86 63.2451L508.85 63.2429C505.615 62.5117 502.366 61.7772 499 62.01C519.15 75.88 536.97 95.17 546.49 118.01C547.7 120.92 551.68 131.96 552 134.52C552.17 135.88 552.03 136.45 550.53 135.98C549.083 135.537 546.472 133.788 543.913 132.074C541.961 130.767 540.04 129.481 538.69 128.81C536.802 127.874 534.706 127.077 532.607 126.28C530.694 125.552 528.78 124.825 527.02 123.99L529.46 142.04L539.83 146.16C537.98 174.31 534.09 203.94 523 229.99C530 228.07 528.353 237.932 527.365 243.845C526.999 246.032 526.724 247.679 527.01 247.99C535.42 244.12 539.8 242.78 548.98 245.52C560.92 249.09 570.34 257.13 570.07 270.51C569.93 277.41 555.84 310.9 551.44 316.93C542.4 329.33 529.93 327.79 517.01 323C516.48 337.71 515.97 351.66 512.52 366.01C504.53 399.27 480.26 429.72 449.12 444.12C448.06 445.78 457.49 479.26 459.52 481.98C460.79 483.68 463.07 484.73 465 485.5C476.7 490.18 492.28 494.64 504.58 497.92C513.835 500.394 523.372 502.163 532.77 503.907C570.521 510.911 606.019 517.498 611.88 567.62C611.899 567.775 611.927 567.955 611.958 568.151C612.173 569.523 612.505 571.648 610.51 571C608.02 559.73 605.41 549.11 599.42 539.07C585.158 515.181 562.166 511.419 538.064 507.475C531.071 506.331 523.984 505.171 516.99 503.5C498.64 499.11 480.2 493.39 462.51 486.98C461.789 488.27 462.109 489.615 462.447 491.033C462.689 492.054 462.942 493.114 462.82 494.22C460.73 513.12 411.74 545.97 393.5 547.99C369.1 550.7 330.1 524.31 316.97 504.51C313.62 499.46 310.59 494.17 312.99 487.99C307.761 489.521 302.539 491.109 297.313 492.698L297.308 492.7C284.616 496.559 271.901 500.426 259.01 503.5C251.3 505.335 243.833 506.678 236.694 507.962C205.12 513.642 179.957 518.168 168.49 558.98C168.146 560.207 167.97 561.636 167.791 563.092C167.415 566.159 167.024 569.342 165.01 570.99C165.36 549 178 526.42 197.47 515.96C209.528 509.483 223.778 507.293 237.782 505.141C244.103 504.17 250.374 503.207 256.37 501.86C275.65 497.53 296.14 490.69 314.97 483.46C320.34 469.8 323.86 455.33 327 440.98C328.23 439.45 328.88 441.1 329.03 442.5C329.4 445.95 325 461.81 323.72 466.21C322.879 469.082 321.266 473.011 319.611 477.041L319.608 477.046L319.608 477.048C317.288 482.697 314.887 488.542 314.42 491.95C312.82 503.6 340.9 525.53 350.09 531.41C382.62 552.23 400.09 549.6 430.94 527.43C438.47 522.02 462.41 501.33 460.83 491.76C456.94 482.65 453.62 473.23 450.74 463.76C450.498 462.961 450.14 461.342 449.71 459.391C448.539 454.089 446.829 446.344 445.44 446.03C427.32 455.54 406.8 458.09 386.46 457.04C329.59 454.1 282.19 408.1 274.27 352.23C272.983 343.123 273.328 334.526 273.678 325.782C273.872 320.94 274.068 316.053 273.99 311.01C256.95 317.91 244.8 313.42 237.98 296.52C234.86 288.78 226.12 263.59 226.1 256.39C226.07 239.87 246.32 228.29 261.05 231.45C262.689 231.801 263.949 232.554 265.183 233.29C266.372 234 267.537 234.696 268.99 235C269.635 234.25 269.668 229.865 269.698 225.929V225.92C269.719 223.144 269.739 220.593 269.97 219.7C270.132 219.086 270.81 218.841 271.44 218.614C271.898 218.448 272.331 218.292 272.52 218.01C273.324 216.81 272.233 213.194 271.296 210.09L271.295 210.086C271.182 209.711 271.071 209.344 270.966 208.989C270.644 207.9 270.377 206.931 270.27 206.23C267.68 189.15 266.96 167.74 267.96 150.46C268.12 147.63 268.81 138.17 270.69 137.19C271.319 136.863 273.417 136.513 275.638 136.142C278.711 135.629 282.022 135.076 282.01 134.49C280.942 132.12 279.313 130.083 277.686 128.049L277.684 128.047C275.487 125.301 273.294 122.56 272.49 119.01C269.49 105.85 280.93 78.92 287.48 66.98C308.65 28.41 345.87 3.71997 389.99 0L381 12.99C401.32 5.05005 422.23 1.94995 443.99 5C445.315 6.10962 442.96 7.39563 440.454 8.76453C437.968 10.1221 435.333 11.561 435.99 12.99C439.263 13.2367 442.743 13.0896 446.221 12.9426C450.075 12.7797 453.926 12.6168 457.49 12.99L457.5 13ZM434 102H450.5C460.894 102 473.177 108.225 482.875 113.14L483.761 113.588C484.244 113.833 484.721 114.074 485.19 114.31C498.81 121.17 511.94 128.98 523.51 138.99C526.002 135.138 525.029 131.148 524.047 127.124C523.469 124.754 522.888 122.372 523.01 120C524.677 118.222 534.036 123.79 540.524 127.649C543.378 129.347 545.677 130.714 546.52 130.98C547.91 131.42 548.27 130.94 547.94 129.57C546.58 123.84 540.22 110.8 537.17 105.33C530.38 93.13 519.09 79.96 507.91 71.59C504.561 69.0818 500.965 67.0327 497.373 64.9854C493.833 62.9678 490.296 60.9519 487 58.5C499.26 57.41 511.9 61.27 523.51 64.98C525.04 64.9 524.68 63.55 524.17 62.35C521.97 57.13 514.45 47.36 510.51 42.99C489.5 19.66 457.59 11.35 427 16C427.125 13.017 429.858 11.9088 432.445 10.8601C435.053 9.80298 437.512 8.80615 437 6.01001H415.5C411.77 6.01001 398.73 9.65002 394.48 10.99C390.494 12.2484 386.741 14.0139 382.995 15.7761C378.763 17.7668 374.541 19.7534 370 21C369.77 20.8101 371.58 18.08 372.01 17.52C372.915 16.3447 374.92 14.3495 377.041 12.2388C380.1 9.19507 383.399 5.91125 383.99 4.5C384.733 2.73279 383.355 2.98425 382.335 3.17041C382.12 3.20972 381.92 3.24609 381.76 3.26001C336.96 7.13 297.4 44.72 281.52 85.03C274.6 102.6 267.12 123.34 288.33 133.76C313.27 123.14 340.24 113.53 366.97 108.48C367.849 108.315 368.905 108.098 370.058 107.862L370.107 107.852L370.115 107.85L370.118 107.849L370.126 107.848L370.129 107.847L370.138 107.845L370.141 107.844L370.149 107.843L370.155 107.841C374.291 106.995 379.626 105.902 382.46 105.98C391.42 106.21 419.91 115.66 428.67 119.85C431.305 121.11 433.681 122.71 436.049 124.304C438.605 126.024 441.15 127.738 444 129.01L434.01 102.02L434 102ZM519 229.01L525.84 145.7C520.62 139.3 513.77 134.14 506.91 129.59C499.4 124.61 488.95 118.57 480.87 114.63C466.57 107.65 454.35 103.79 438 105.01C438.308 105.906 439.085 107.856 440.081 110.355C443.454 118.815 449.333 133.564 447.99 135C445.443 134.947 443.71 133.227 441.99 131.52C441.13 130.667 440.273 129.817 439.32 129.18C421.18 117 390.62 106.79 368.94 110.46C348.81 113.86 321 122.76 302.02 130.54C301.579 130.721 301.055 130.927 300.473 131.156L300.404 131.183L300.391 131.188C296.192 132.839 289.084 135.635 287.88 138.4C286.747 148.519 285.207 158.64 283.667 168.761C281.905 180.345 280.143 191.929 278.99 203.51C278.963 203.782 278.926 204.138 278.883 204.559C278.501 208.235 277.604 216.894 278.42 218.06L364.44 223.03C391.673 221.678 418.67 223.781 445.743 225.89L445.747 225.89C462.921 227.228 480.125 228.568 497.44 229.03C501.025 229.125 504.623 229.068 508.22 229.01C511.816 228.953 515.41 228.895 518.99 228.99L519 229.01ZM285 137.01L272.14 139.14C269.9 163.54 270.43 188.82 274.02 213.01L275.99 211.51L285 137.01ZM522.01 223C523.46 222.74 524.01 221.2 524.49 219.99C530.739 204.245 532.889 186.836 535.004 169.718C535.885 162.591 536.759 155.515 537.92 148.63C537.31 146.55 531.17 145.63 529.08 146.09L522.01 223ZM273.64 221.14C271.451 221.852 271.751 229.319 271.959 234.479C272.029 236.203 272.088 237.669 272.04 238.54C271.891 241.257 271.677 243.97 271.464 246.667C270.159 263.2 268.903 279.116 283.08 291.41C301.4 307.31 344.89 309.03 363.47 292.97C376.125 282.028 376.362 266.81 376.6 251.479C376.672 246.845 376.744 242.2 377.16 237.66C378.78 232.88 402.47 233.53 407.39 234.11C409.49 234.35 417.58 236.43 418.52 237.99C419.005 243.624 418.641 249.453 418.276 255.306C417.633 265.628 416.985 276.021 420.98 285.53C433.32 314.91 490.23 318.21 512.02 298.51C522.02 289.47 523.06 276.26 524.05 263.54C524.571 256.86 524.556 249.359 524.542 242.164C524.536 238.999 524.53 235.892 524.57 232.94L422.48 228.03C410.446 222.882 397.401 223.666 384.701 224.428C380.599 224.674 376.534 224.918 372.55 224.96C358.624 225.101 344.689 224.197 330.797 223.296C323.032 222.792 315.28 222.289 307.55 221.97C300.772 221.687 293.954 221.564 287.141 221.44L287.128 221.44C282.628 221.359 278.131 221.277 273.65 221.15L273.64 221.14ZM360.361 297.969L360.359 297.97C358.17 299.469 355.974 300.972 353.52 302.03C322.32 315.5 270.78 304.6 268 264.49C267.777 261.257 268.168 257.711 268.555 254.204C269.641 244.356 270.693 234.816 258.01 233.4C254.97 233.06 246.84 235.18 243.77 236.27C233.18 240.05 227.75 248.98 229.26 260.24C230.05 266.13 239.7 297.29 242.59 301.91C247.38 309.57 257.3 313.4 266.06 311.56C267.927 311.166 269.649 310.239 271.37 309.312C274.063 307.862 276.754 306.412 280 307.01C279.858 308.806 279.186 308.952 278.428 309.117C277.528 309.312 276.506 309.534 276.11 312.58C267.17 381.07 309.94 444.84 379.64 453.87C443.41 462.13 503.88 417.23 512.87 353.37C513.64 347.89 516.04 324.61 515.03 320.71C514.889 320.161 514.284 319.878 513.644 319.579C512.651 319.114 511.572 318.609 512.01 317.01C513.237 317.547 514.461 318.105 515.683 318.661C526.273 323.487 536.683 328.23 547.02 318.52C551.98 313.86 564.18 284.61 566.46 276.95C571.1 261.37 561.39 251.38 547.01 247.49C537.78 244.99 534.08 246.42 526.99 252.7L526.987 253.128C526.869 272.168 526.762 289.418 511.02 302.51C491.6 318.66 445.14 316.38 426.97 298.54C414.308 286.104 414.909 271.478 415.538 256.19V256.149C415.771 250.477 416.009 244.715 415.57 238.94C404.19 234.91 391.66 235.09 380.11 238.1C379.567 242.947 379.448 247.792 379.328 252.609C379.085 262.439 378.845 272.151 375.02 281.52C374.497 282.799 373.691 284.091 372.878 285.394L372.877 285.395C371.778 287.157 370.667 288.937 370.23 290.73C368.64 297.27 365.62 320.15 365.95 326.53C366.63 339.36 386.75 350.45 398.42 348.91C401.42 348.51 412.78 342.88 415.51 341.01C420.42 337.67 423.31 331.86 423.48 325.98C427.63 323.84 425.43 331.15 424.69 333.19C420.36 345.1 401.44 352.55 389.59 350.91C385.49 350.34 375.26 344.57 371.79 341.93C361.682 334.238 363.671 321.846 365.591 309.888L365.592 309.885C366.484 304.324 367.362 298.857 367 294L366.99 294.01C364.63 295.047 362.498 296.506 360.361 297.969Z" fill="#8E19F5"/>
<path d="M406 487.02C404.149 492.283 395.597 494.71 390.54 495.04C385.48 495.37 371.47 493.48 369.01 488.5C367.15 484.737 373.218 488.6 375.383 489.978C375.767 490.222 376.028 490.388 376.1 490.42C383.55 493.59 389.87 494.29 397.53 491.04C398.64 490.569 399.607 489.888 400.556 489.219C402.206 488.056 403.801 486.932 406 487.02Z" fill="#8E19F5"/>
<path d="M171.5 565.978C171.5 542.832 187.386 522.711 209.901 517.342L289.787 498.29C297.541 496.44 305.556 500.121 309.207 507.208C310.699 510.104 312.978 512.521 315.781 514.181L362.825 542.036C378.103 551.082 397.031 551.348 412.557 542.734L454.599 519.409C458.404 517.298 461.34 513.91 462.889 509.844C466.117 501.373 475.02 496.501 483.894 498.35L562.77 514.785C582.327 518.859 597.582 534.185 601.566 553.761L606.5 578C550.789 610.018 484.651 618.626 422.6 601.935L319.112 574.097C290.596 566.426 260.947 563.868 231.538 566.542L171.5 572V565.978Z" fill="#D7F1FD"/>
<path d="M259.293 168.76L257.015 169.534L259.293 172.267V168.76Z" fill="#D7F1FD"/>
<path d="M260.204 477.197C261.503 483.931 264.149 490.185 267.85 495.668L266.874 496H266.307L0 176.488V167.564L1.66007 167L260.204 477.197Z" fill="#D7F1FD"/>
<path d="M259.293 444.573V456.053L20.4849 169.534L27.9415 167L216.462 393.184V396.045C216.462 407.46 225.399 416.788 236.661 417.419L259.293 444.573Z" fill="#D7F1FD"/>
<path d="M216.462 361.653V373.133L46.7659 169.534L54.2225 167L216.462 361.653Z" fill="#D7F1FD"/>
<path d="M216.462 330.12V341.6L73.0473 169.534L80.5039 167L216.462 330.12Z" fill="#D7F1FD"/>
<path d="M216.462 298.589V310.069L99.3283 169.534L106.785 167L216.462 298.589Z" fill="#D7F1FD"/>
<path d="M216.462 267.057V278.537L125.61 169.534L133.066 167L216.462 267.057Z" fill="#D7F1FD"/>
<path d="M216.599 235.69C216.508 236.491 216.462 237.305 216.462 238.13V247.005L151.891 169.534L159.347 167L216.599 235.69Z" fill="#D7F1FD"/>
<path d="M228.763 218.752C226.51 219.813 224.472 221.255 222.731 222.995L178.172 169.534L185.629 167L228.763 218.752Z" fill="#D7F1FD"/>
<path d="M250.14 212.868C248.072 214.314 245.737 215.404 243.223 216.05L204.453 169.534L211.91 167L250.14 212.868Z" fill="#D7F1FD"/>
<path d="M259.293 192.318V195.314C259.293 197.786 258.874 200.161 258.103 202.37L230.734 169.534L238.191 167L259.293 192.318Z" fill="#D7F1FD"/>
<path d="M529.608 496C531.005 493.966 532.255 491.824 533.345 489.59L536.701 493.616L529.686 496H529.608Z" fill="#D7F1FD"/>
<path d="M537.861 474.956L555.401 496H555.968L562.982 493.616L538.391 464.112V467.635C538.391 470.122 538.21 472.566 537.861 474.956Z" fill="#D7F1FD"/>
<path d="M538.391 444.061L581.681 496H582.249L589.264 493.616L538.552 432.774C538.446 433.56 538.391 434.363 538.391 435.178V444.061Z" fill="#D7F1FD"/>
<path d="M545.462 421.013L607.963 496H608.53L615.545 493.616L552.391 417.846C549.833 418.393 547.48 419.493 545.462 421.013Z" fill="#D7F1FD"/>
<path d="M566.175 414.331L634.244 496H634.811L641.826 493.616L571.264 408.957C569.962 411.086 568.225 412.919 566.175 414.331Z" fill="#D7F1FD"/>
<path d="M573.854 392.013L660.525 496H661.092L668.107 493.616L573.854 380.533V392.013Z" fill="#D7F1FD"/>
<path d="M573.854 360.481L686.806 496H687.374L694.388 493.616L573.854 349.001V360.481Z" fill="#D7F1FD"/>
<path d="M573.854 328.949L713.088 496H713.655L720.669 493.616L573.854 317.469V328.949Z" fill="#D7F1FD"/>
<path d="M573.854 297.418L739.369 496H739.936L746.951 493.616L573.854 285.937V297.418Z" fill="#D7F1FD"/>
<path d="M573.854 265.885L765.65 496H766.217L773.232 493.616L573.854 254.405V265.885Z" fill="#D7F1FD"/>
<path d="M573.853 234.354L791.931 496H792.499L794 495.49V487.002L538.391 180.326V191.806L559.412 217.027C567.603 218.563 573.809 225.73 573.853 234.354Z" fill="#D7F1FD"/>
<path d="M0 196.54V208.02L240.026 496H240.593L247.608 493.616L0 196.54Z" fill="#D7F1FD"/>
<path d="M0 228.072V239.552L213.745 496H214.312L221.327 493.616L0 228.072Z" fill="#D7F1FD"/>
<path d="M0 259.604V271.084L187.464 496H188.031L195.045 493.616L0 259.604Z" fill="#D7F1FD"/>
<path d="M0 291.135V302.616L161.182 496H161.75L168.764 493.616L0 291.135Z" fill="#D7F1FD"/>
<path d="M0 322.667V334.147L134.901 496H135.468L142.483 493.616L0 322.667Z" fill="#D7F1FD"/>
<path d="M0 354.199V365.679L108.62 496H109.188L116.202 493.616L0 354.199Z" fill="#D7F1FD"/>
<path d="M0 385.731V397.211L82.3389 496H82.9061L89.9206 493.616L0 385.731Z" fill="#D7F1FD"/>
<path d="M0 417.263V428.743L56.0575 496H56.6251L63.6396 493.616L0 417.263Z" fill="#D7F1FD"/>
<path d="M0 448.794V460.275L29.7765 496H30.3437L37.3582 493.616L0 448.794Z" fill="#D7F1FD"/>
<path d="M0 480.326V491.806L3.4951 496H4.06271L11.0772 493.616L0 480.326Z" fill="#D7F1FD"/>
<path d="M794 466.95V455.47L553.565 167L546.109 169.534L794 466.95Z" fill="#D7F1FD"/>
<path d="M794 435.418V423.938L579.846 167L572.39 169.534L794 435.418Z" fill="#D7F1FD"/>
<path d="M794 403.887V392.406L606.128 167L598.671 169.534L794 403.887Z" fill="#D7F1FD"/>
<path d="M794 372.355V360.875L632.409 167L624.952 169.534L794 372.355Z" fill="#D7F1FD"/>
<path d="M794 340.823V329.343L658.69 167L651.234 169.534L794 340.823Z" fill="#D7F1FD"/>
<path d="M794 309.291V297.811L684.971 167L677.515 169.534L794 309.291Z" fill="#D7F1FD"/>
<path d="M794 277.759V266.279L711.253 167L703.796 169.534L794 277.759Z" fill="#D7F1FD"/>
<path d="M794 246.228V234.747L737.534 167L730.077 169.534L794 246.228Z" fill="#D7F1FD"/>
<path d="M794 214.696V203.216L763.815 167L756.358 169.534L794 214.696Z" fill="#D7F1FD"/>
<path d="M794 183.164V171.684L790.096 167L782.64 169.534L794 183.164Z" fill="#D7F1FD"/>
<path d="M508.334 224.656C503.874 221.316 499.664 216.536 495.074 213.426C479.874 203.146 461.914 200.636 443.974 202.786C439.044 203.376 424.474 208.016 421.904 207.676C417.694 207.116 417.494 200.346 418.514 197.316C419.374 194.776 429.194 193.386 432.114 192.926C459.764 188.526 503.494 188.906 508.334 224.656Z" fill="#8E19F5"/>
<path d="M299.298 213.075C298.078 205.405 300.638 203.495 306.378 199.665C323.548 188.195 352.068 188.755 370.298 197.575C374.948 199.825 375.098 203.585 372.768 208.055C370.008 213.355 358.888 206.035 354.308 204.565C334.228 198.165 316.788 202.045 299.308 213.075H299.298Z" fill="#8E19F5"/>
</svg>
